<?xml version="1.0" encoding="utf-8"?>
<!-- Generator: Adobe Illustrator 21.0.2, SVG Export Plug-In . SVG Version: 6.00 Build 0)  -->
<svg version="1.1" id="Layer_1" xmlns="http://www.w3.org/2000/svg" xmlns:xlink="http://www.w3.org/1999/xlink" x="0px" y="0px"
	 width="1330px" height="640px" viewBox="0 0 1330 640" style="enable-background:new 0 0 1330 640;" xml:space="preserve">
<path d="M640,640v-40.7L599.3,640H640z M0,0v40.7L40.7,0H0z M149.8,130.9L280.7,0h-59.6l-71.3,71.3L94.5,17.5L0,112v58.2l94.5-94.5
	L149.8,130.9z M490.2,509.1L359.3,640h59.6l71.3-71.3l55.3,53.8L640,528v-58.2l-94.5,94.5L490.2,509.1z"/>
<path d="M488.7,381.1L229.8,640H288l200.7-200.7l56.7,53.8l94.5-94.5v-58.2l-96,94.5L488.7,381.1z M151.3,258.9L410.2,0H352
	L151.3,200.7l-56.7-55.3L0,241.5v58.2l96-94.5L151.3,258.9z"/>
<path d="M488.7,251.6l-336,336l-55.3-55.3L0,629.8V640h49.5l48-48l49.5,48h11.6l330.2-328.7l55.3,53.8l96-96v-59.6l-96,97.5
	L488.7,251.6z M590.5,0l-48,48L493.1,0h-11.6L151.3,328.7L96,274.9l-96,96v58.2l96-96l55.3,55.3l336-336l55.3,55.3L640,10.2V0
	L590.5,0z"/>
<path d="M487.3,123.6L152.7,458.2L96,404.4l-96,96V560l97.5-97.5l55.3,53.8l334.5-334.5l56.7,53.8l96-96V80l-97.5,97.5L487.3,123.6z
	"/>
<path d="M1011.5,571.6l-14.5-13.1c-45.1-42.2-97.5-91.6-139.6-139.6l-2.9-2.9c-21.8-24.7-50.9-58.2-46.5-112
	c1.5-27.6,14.5-55.3,34.9-75.6s46.5-32,72.7-34.9c46.5-4.4,75.6,16,94.5,34.9c18.9-20.4,46.5-39.3,93.1-34.9
	c36.4,2.9,72.7,24.7,93.1,58.2c20.4,32,23.3,69.8,8.7,106.2c-8.7,21.8-26.2,40.7-40.7,58.2l-1.5,1.5c-37.8,45.1-84.4,88.7-125.1,128
	L1011.5,571.6L1011.5,571.6z M928.5,237.1h-8.7c-16,1.5-34.9,10.2-48,23.3c-10.2,8.7-21.8,24.7-23.3,48
	c-2.9,36.4,17.5,59.6,37.8,81.5l2.9,2.9c36.4,42.2,81.5,84.4,122.2,123.6c40.7-39.3,82.9-80,120.7-123.6l1.5-1.5
	c13.1-16,26.2-30.5,33.5-46.5c10.2-23.3,7.3-48-5.8-68.4c-13.1-21.8-36.4-36.4-59.6-39.3c-37.8-2.9-53.8,16-72.7,37.8l-18.9,21.8
	l-17.5-20.4C973.6,251.6,957.6,237.1,928.5,237.1L928.5,237.1z M690,637.1l1.5,1.5h58.2c-20.4-20.4-40.7-42.2-59.6-64
	C690,574.5,690,637.1,690,637.1z M1327.1,638.5l2.9-2.9v-62.5c-20.4,23.3-40.7,45.1-61.1,65.5L1327.1,638.5L1327.1,638.5z M690,0
	v53.8c23.3-20.4,49.5-39.3,78.5-53.8H690z M1328.5,0H1250c29.1,14.5,55.3,33.5,80,55.3L1328.5,0z M1268.9,506.2
	c-40.7,48-87.3,93.1-129.5,132.4h59.6c33.5-32,68.4-68.4,100.4-104.7l1.5-1.5c8.7-10.2,18.9-21.8,29.1-34.9V416
	c-17.5,39.3-43.6,69.8-59.6,88.7L1268.9,506.2L1268.9,506.2z M751.1,506.2l-2.9-2.9c-14.5-17.5-39.3-46.5-58.2-87.3v81.5
	c10.2,13.1,18.9,24.7,26.2,33.5l2.9,2.9c32,36.4,66.9,72.7,100.4,104.7h61.1C836.9,597.8,790.4,552.7,751.1,506.2L751.1,506.2z"/>
<path d="M1116.2,11.6c-8.7,0-16-1.5-24.7-1.5c-27.6,0-55.3,4.4-81.5,11.6c-26.2-7.3-53.8-11.6-81.5-11.6c-10.2,0-18.9,0-29.1,1.5
	C834,17.5,767.1,48,717.6,96c-10.2,10.2-18.9,18.9-27.6,29.1v80c13.1-29.1,32-55.3,55.3-78.5c43.6-42.2,100.4-68.4,157.1-72.7
	c8.7-1.5,16-1.5,24.7-1.5c26.2,0,50.9,4.4,75.6,11.6l7.3,1.5l5.8-1.5c23.3-7.3,49.5-11.6,75.6-11.6c7.3,0,14.5,0,21.8,1.5
	c80,5.8,157.1,53.8,200.7,123.6c5.8,10.2,11.6,20.4,16,30.5v-81.5C1277.6,61.1,1199.1,17.5,1116.2,11.6L1116.2,11.6z"/>
<path d="M1231.1,474.2c18.9-21.8,42.2-49.5,56.7-84.4c26.2-62.5,20.4-130.9-14.5-187.6s-97.5-96-162.9-101.8h-17.5
	c-29.1,0-56.7,5.8-81.5,17.5c-24.7-11.6-52.4-17.5-81.5-17.5c-7.3,0-13.1,0-20.4,1.5c-46.5,4.4-93.1,26.2-128,59.6
	c-37.8,36.4-59.6,82.9-62.5,133.8c-5.8,90.2,45.1,148.4,68.4,177.5l2.9,2.9C835.5,528,890.7,580.4,937.3,624l17.5,16h113.5l32-30.5
	C1142.4,567.3,1190.4,522.2,1231.1,474.2L1231.1,474.2z M1071.1,578.9l-59.6,56.7l-48-45.1c-46.5-42.2-100.4-93.1-144-144l-2.9-2.9
	c-23.3-27.6-64-74.2-58.2-146.9c2.9-40.7,20.4-78.5,50.9-107.6c29.1-27.6,65.5-45.1,103.3-48c5.8,0,11.6-1.5,17.5-1.5
	c26.2,0,50.9,5.8,71.3,17.5l10.2,4.4l10.2-4.4c21.8-11.6,46.5-17.5,72.7-17.5h14.5c52.4,4.4,101.8,34.9,130.9,81.5
	c27.6,45.1,32,100.4,11.6,149.8c-11.6,29.1-32,52.4-48,71.3l-4.4,4.4C1159.8,493.1,1113.3,538.2,1071.1,578.9L1071.1,578.9z"/>
</svg>
